<svg width="24" height="25" viewBox="0 0 24 25" fill="none" xmlns="http://www.w3.org/2000/svg">
<path d="M4 18.2654C5.10457 18.2654 6 19.1608 6 20.2654C6 21.37 5.10457 22.2654 4 22.2654C2.89543 22.2654 2 21.37 2 20.2654C2 19.1608 2.89543 18.2654 4 18.2654ZM9.5 15.2654C10.8807 15.2654 12 16.3847 12 17.7654C12 19.1461 10.8807 20.2654 9.5 20.2654C8.11929 20.2654 7 19.1461 7 17.7654C7 16.3847 8.11929 15.2654 9.5 15.2654ZM12 2.26538C14.6592 2.26538 16.8838 4.18798 17.3302 6.73597L17.4118 6.73597C19.491 6.73597 21.1765 8.42149 21.1765 10.5007C21.1765 12.5799 19.491 14.2654 17.4118 14.2654L6.58824 14.2654C4.50905 14.2654 2.82353 12.5799 2.82353 10.5007C2.82353 8.42149 4.50905 6.73597 6.58826 6.73597L6.66977 6.73597C7.1162 4.18798 9.34078 2.26538 12 2.26538Z" fill="#6C4EA2"/>
</svg>
