<svg width="24" height="25" viewBox="0 0 24 25" fill="none" xmlns="http://www.w3.org/2000/svg">
<path d="M23.9784 18.278C23.9723 18.3436 23.9641 18.4092 23.9518 18.4748C23.4615 21.4337 21.2776 23.5913 18.2703 24.1381C18.1559 24.16 18.0476 24.2236 17.9373 24.2654L6.09013 24.2654C5.92465 24.2177 5.76326 24.152 5.59574 24.1242C2.53536 23.6151 0.0817461 20.9525 0.0347577 17.9538C-0.0224455 14.3149 0.00819809 10.6759 0.00819809 7.03691C0.00819809 6.59744 0.0143335 6.14605 0.104224 5.71852C0.751847 2.66615 3.09105 0.635887 6.24744 0.317725C6.51916 0.289886 6.79904 0.27596 7.08301 0.273971C10.3334 0.258063 13.5817 0.268006 16.8321 0.273971C17.1896 0.273971 17.5532 0.279943 17.9087 0.317725C18.0027 0.327667 18.0967 0.339599 18.1886 0.355507C21.157 0.84667 23.4002 2.91074 23.8579 5.81596C23.9212 6.21366 23.9559 6.61734 23.9764 7.02101C24.0172 7.85817 23.9866 8.70726 23.9764 9.55039C23.9723 9.79696 23.9723 10.0455 23.9743 10.2921C23.9764 10.4035 23.8742 10.5407 23.7823 10.6262C22.5667 11.7696 21.3675 12.9328 20.1131 14.0385C19.0426 14.983 17.9659 15.9395 16.7851 16.7428C15.3509 17.7172 13.6961 17.9857 11.9821 17.5601C11.5101 17.4428 11.3222 17.5939 11.2262 17.9777C11.0648 18.614 10.9258 19.2583 10.7706 19.9225C10.7154 19.9225 10.6276 19.9384 10.5479 19.9205C9.08104 19.5805 7.67956 18.0155 7.60192 16.5519C7.57741 16.1025 7.42419 15.8063 7.09527 15.508C6.21883 14.7165 5.83068 13.7302 6.01454 12.563C6.14121 11.7497 6.53346 11.0477 7.07485 10.4333C8.86653 8.39705 11.1567 7.26161 13.8943 7.07867C15.3857 6.97725 16.734 7.39882 17.6881 8.6317C18.0803 9.13678 18.0538 9.48079 17.6002 9.93815C17.4674 10.0714 17.3204 10.2006 17.161 10.3001C15.594 11.2685 13.8759 11.7099 12.027 11.5628C10.7624 11.4613 10.2864 10.8867 10.3068 9.66174C10.3089 9.56828 10.2823 9.47483 10.2619 9.31973C9.47738 9.59812 9.01362 10.1211 8.70309 10.7872C8.20665 11.8491 8.52535 12.7658 9.31598 13.5393C7.83483 15.6571 8.30062 18.2899 10.2843 18.9421C10.4825 16.4286 12.3171 15.3032 14.3805 14.3725C15.0465 14.0723 15.7003 13.7521 16.3724 13.4678C18.5931 12.5232 19.8209 10.8926 20.013 8.53426C20.203 6.18583 19.3654 4.04221 17.0302 2.94852C15.3121 2.14516 13.5511 2.20283 11.7941 2.85904C6.31077 4.90522 2.61708 11.4097 3.33416 16.3412C3.60792 18.2203 4.43532 19.8012 6.03088 20.9485C9.2077 23.2314 13.6226 23.0086 16.8443 20.4156C18.4358 19.135 19.6698 17.5502 20.8894 15.9514C21.5963 15.0228 22.3154 14.1021 23.0509 13.1973C23.2879 12.905 23.5984 12.6704 23.9764 12.3164C23.9784 12.3144 23.9804 12.3124 23.9825 12.3104C23.9825 13.9689 23.9845 15.4622 23.9825 16.9536C23.9845 17.3911 24.0233 17.8405 23.9784 18.278Z" fill="#6C4EA2"/>
</svg>
