<svg width="24" height="25" viewBox="0 0 24 25" fill="none" xmlns="http://www.w3.org/2000/svg">
<g clip-path="url(#clip0_1613_13582)">
<path d="M12 2.42632C15.2063 2.42632 15.5859 2.44038 16.8469 2.49663C18.0188 2.54819 18.6516 2.74507 19.0734 2.90913C19.6313 3.12476 20.0344 3.38726 20.4516 3.80444C20.8734 4.22632 21.1313 4.62476 21.3469 5.18257C21.5109 5.60444 21.7078 6.24194 21.7594 7.40913C21.8156 8.67476 21.8297 9.05444 21.8297 12.256C21.8297 15.4623 21.8156 15.8419 21.7594 17.1029C21.7078 18.2748 21.5109 18.9076 21.3469 19.3294C21.1313 19.8873 20.8687 20.2904 20.4516 20.7076C20.0297 21.1294 19.6313 21.3873 19.0734 21.6029C18.6516 21.7669 18.0141 21.9638 16.8469 22.0154C15.5813 22.0716 15.2016 22.0857 12 22.0857C8.79375 22.0857 8.41406 22.0716 7.15313 22.0154C5.98125 21.9638 5.34844 21.7669 4.92656 21.6029C4.36875 21.3873 3.96563 21.1248 3.54844 20.7076C3.12656 20.2857 2.86875 19.8873 2.65313 19.3294C2.48906 18.9076 2.29219 18.2701 2.24063 17.1029C2.18438 15.8373 2.17031 15.4576 2.17031 12.256C2.17031 9.04976 2.18438 8.67007 2.24063 7.40913C2.29219 6.23726 2.48906 5.60444 2.65313 5.18257C2.86875 4.62476 3.13125 4.22163 3.54844 3.80444C3.97031 3.38257 4.36875 3.12476 4.92656 2.90913C5.34844 2.74507 5.98594 2.54819 7.15313 2.49663C8.41406 2.44038 8.79375 2.42632 12 2.42632ZM12 0.265381C8.74219 0.265381 8.33438 0.279443 7.05469 0.335693C5.77969 0.391943 4.90313 0.598193 4.14375 0.893506C3.35156 1.20288 2.68125 1.61069 2.01563 2.28101C1.34531 2.94663 0.9375 3.61694 0.628125 4.40444C0.332812 5.16851 0.126563 6.04038 0.0703125 7.31538C0.0140625 8.59976 0 9.00757 0 12.2654C0 15.5232 0.0140625 15.931 0.0703125 17.2107C0.126563 18.4857 0.332812 19.3623 0.628125 20.1216C0.9375 20.9138 1.34531 21.5841 2.01563 22.2498C2.68125 22.9154 3.35156 23.3279 4.13906 23.6326C4.90313 23.9279 5.775 24.1341 7.05 24.1904C8.32969 24.2466 8.7375 24.2607 11.9953 24.2607C15.2531 24.2607 15.6609 24.2466 16.9406 24.1904C18.2156 24.1341 19.0922 23.9279 19.8516 23.6326C20.6391 23.3279 21.3094 22.9154 21.975 22.2498C22.6406 21.5841 23.0531 20.9138 23.3578 20.1263C23.6531 19.3623 23.8594 18.4904 23.9156 17.2154C23.9719 15.9357 23.9859 15.5279 23.9859 12.2701C23.9859 9.01226 23.9719 8.60444 23.9156 7.32476C23.8594 6.04976 23.6531 5.17319 23.3578 4.41382C23.0625 3.61694 22.6547 2.94663 21.9844 2.28101C21.3188 1.61538 20.6484 1.20288 19.8609 0.898193C19.0969 0.602881 18.225 0.396631 16.95 0.340381C15.6656 0.279443 15.2578 0.265381 12 0.265381Z" fill="#6C4EA2"/>
<path d="M12 6.10132C8.59688 6.10132 5.83594 8.86226 5.83594 12.2654C5.83594 15.6685 8.59688 18.4294 12 18.4294C15.4031 18.4294 18.1641 15.6685 18.1641 12.2654C18.1641 8.86226 15.4031 6.10132 12 6.10132ZM12 16.2638C9.79219 16.2638 8.00156 14.4732 8.00156 12.2654C8.00156 10.0576 9.79219 8.26694 12 8.26694C14.2078 8.26694 15.9984 10.0576 15.9984 12.2654C15.9984 14.4732 14.2078 16.2638 12 16.2638Z" fill="#6C4EA2"/>
<path d="M19.8469 5.85764C19.8469 6.65452 19.2 7.29671 18.4078 7.29671C17.6109 7.29671 16.9688 6.64983 16.9688 5.85764C16.9688 5.06077 17.6156 4.41858 18.4078 4.41858C19.2 4.41858 19.8469 5.06546 19.8469 5.85764Z" fill="#6C4EA2"/>
</g>
<defs>
<clipPath id="clip0_1613_13582">
<rect width="24" height="24" fill="white" transform="translate(0 0.265381)"/>
</clipPath>
</defs>
</svg>
