<svg xmlns="http://www.w3.org/2000/svg" version="1.1" viewBox="0.00 0.00 182.00 182.00">
<path fill="#ffffff" d="   M 88.06 0.00   L 91.51 0.00   Q 99.76 3.32 101.48 10.03   C 105.00 23.74 86.00 31.55 78.82 18.76   Q 76.95 15.43 77.53 11.32   Q 78.66 3.47 88.06 0.00   Z"/>
<path fill="#ffffff" d="   M 72.32 28.39   Q 69.40 27.10 66.45 26.50   A 1.00 0.99 -55.3 0 1 66.12 24.68   Q 70.53 21.91 75.57 21.14   Q 76.05 21.06 76.33 21.45   C 83.52 31.13 96.55 31.66 103.50 21.66   Q 103.84 21.16 104.43 21.28   C 107.20 21.84 109.68 22.71 111.27 25.35   C 121.21 41.78 122.22 62.43 112.95 79.19   Q 112.02 80.86 110.53 82.13   A 1.66 1.65 -45.1 0 1 108.39 82.14   Q 106.90 80.89 106.92 78.84   C 107.13 56.31 92.30 37.27 72.32 28.39   Z"/>
<circle fill="#ffffff" cx="142.35" cy="33.31" r="12.27"/>
<circle fill="#ffffff" cx="37.99" cy="35.86" r="12.27"/>
<path fill="#ffffff" d="   M 119.64 74.34   Q 128.46 49.62 116.40 25.97   Q 116.11 25.41 116.74 25.29   C 119.18 24.82 124.14 27.95 126.12 29.42   Q 126.55 29.74 126.46 30.27   C 124.40 42.09 133.65 51.49 145.37 49.35   A 0.89 0.87 -20.5 0 1 146.27 49.75   C 147.65 51.99 149.60 55.34 148.81 58.10   Q 140.68 86.58 112.47 96.63   Q 110.22 97.43 108.00 96.86   A 1.91 1.90 12.0 0 1 106.60 94.71   Q 106.83 93.35 107.88 92.33   Q 116.09 84.32 119.64 74.34   Z"/>
<path fill="#ffffff" d="   M 53.39 42.16   Q 55.31 38.13 54.35 32.64   A 0.94 0.93 66.5 0 1 54.70 31.75   Q 56.41 30.41 58.97 29.49   Q 60.71 28.85 62.51 29.33   C 81.54 34.40 96.60 48.65 101.74 67.64   Q 102.30 69.73 100.93 71.00   A 2.29 2.29 0.0 0 1 97.74 70.93   Q 89.19 62.26 79.26 58.66   Q 54.48 49.69 31.05 61.69   A 0.67 0.67 0.0 0 1 30.09 60.94   Q 31.18 56.11 34.33 51.88   Q 34.65 51.45 35.18 51.52   Q 48.13 53.21 53.39 42.16   Z"/>
<path fill="#ffffff" d="   M 79.59 63.10   C 81.88 64.02 85.38 65.64 86.78 67.75   A 2.05 2.05 0.0 0 1 85.34 70.92   Q 82.67 71.28 79.81 71.36   C 74.53 71.50 68.30 73.11 63.25 75.38   Q 43.08 84.47 33.50 104.91   Q 32.24 107.59 31.54 110.48   Q 30.70 113.98 29.09 110.77   Q 27.39 107.39 26.52 103.31   A 1.28 1.28 0.0 0 1 27.05 101.97   C 36.46 95.57 37.02 81.54 27.12 75.09   A 1.07 1.06 -66.1 0 1 26.67 73.92   C 27.42 71.23 28.52 67.98 31.00 66.38   Q 32.65 65.32 34.22 64.57   Q 56.60 53.87 79.59 63.10   Z"/>
<path fill="#ffffff" d="   M 120.66 97.61   Q 144.24 86.35 151.95 61.51   A 0.70 0.69 -51.2 0 1 153.22 61.37   Q 155.62 65.60 156.45 70.36   A 0.65 0.64 68.3 0 1 156.18 71.00   C 146.47 77.56 145.70 91.20 155.67 98.01   A 1.30 1.29 24.6 0 1 156.20 99.42   C 155.38 102.51 154.05 106.01 151.03 107.70   C 134.61 116.89 115.59 116.74 99.11 108.40   Q 97.39 107.53 95.98 105.70   A 1.64 1.62 46.9 0 1 96.04 103.64   C 96.88 102.66 98.46 102.20 99.71 102.23   Q 110.40 102.51 120.66 97.61   Z"/>
<ellipse fill="#ffffff" cx="0.00" cy="0.00" transform="translate(165.32,84.95) rotate(-1.0)" rx="12.42" ry="12.22"/>
<ellipse fill="#ffffff" cx="0.00" cy="0.00" transform="translate(17.58,88.57) rotate(-0.6)" rx="12.41" ry="12.21"/>
<path fill="#ffffff" d="   M 64.01 97.31   Q 54.00 122.50 66.33 147.27   Q 67.14 148.89 65.41 148.34   Q 61.08 146.95 57.20 144.19   Q 56.80 143.91 56.89 143.42   Q 58.51 134.47 52.70 128.60   C 49.03 124.87 43.73 123.28 38.54 124.26   A 1.58 1.57 -20.6 0 1 36.90 123.52   C 34.77 119.95 33.52 116.50 34.96 112.35   Q 44.01 86.38 69.98 77.04   Q 71.97 76.32 74.06 76.42   A 2.28 2.28 0.0 0 1 76.24 78.59   Q 76.30 79.90 75.36 80.80   Q 67.61 88.25 64.01 97.31   Z"/>
<path fill="#ffffff" d="   M 106.81 151.92   C 100.37 142.23 86.46 142.19 79.91 151.79   A 1.02 1.01 -65.6 0 1 78.83 152.20   C 75.92 151.48 73.15 150.71 71.45 147.86   C 61.48 131.20 60.78 110.37 70.31 93.66   Q 71.26 92.01 72.98 91.09   Q 73.53 90.80 74.07 91.12   Q 75.98 92.25 75.95 94.40   Q 75.77 106.71 81.12 117.14   Q 92.86 140.04 117.23 147.49   Q 117.95 147.71 117.53 148.33   C 116.10 150.42 110.52 151.93 107.90 152.38   A 1.10 1.08 -21.6 0 1 106.81 151.92   Z"/>
<path fill="#ffffff" d="   M 85.99 103.28   C 102.86 120.73 130.93 122.94 152.01 111.75   A 0.67 0.67 0.0 0 1 152.98 112.51   Q 151.80 117.17 148.68 121.35   A 0.91 0.89 23.4 0 1 147.80 121.69   C 136.05 119.46 126.83 128.82 128.72 140.62   Q 128.82 141.22 128.30 141.54   Q 126.11 142.91 123.30 143.95   Q 121.53 144.61 119.54 144.01   Q 92.79 135.96 82.46 110.25   C 81.54 107.98 79.95 103.75 82.55 102.04   Q 83.01 101.74 83.54 101.87   Q 84.97 102.23 85.99 103.28   Z"/>
<circle fill="#ffffff" cx="144.91" cy="137.65" r="12.27"/>
<circle fill="#ffffff" cx="40.55" cy="140.22" r="12.26"/>
<circle fill="#ffffff" cx="93.27" cy="160.59" r="12.29"/>
</svg>