<svg width="24" height="25" viewBox="0 0 24 25" fill="none" xmlns="http://www.w3.org/2000/svg">
<path d="M20.2449 13.262C20.9537 13.262 21.267 14.1544 20.7137 14.5975L15.9958 18.3752V20.0195C15.9958 21.2622 14.9884 22.2695 13.7458 22.2695H10.2504C9.0078 22.2695 8.00044 21.2622 8.00044 20.0195V18.3753L3.28085 14.5975C2.72744 14.1546 3.04067 13.262 3.74953 13.262L20.2449 13.262ZM8.75044 9.26492L15.2451 9.26492C16.1633 9.26492 16.9163 9.97203 16.9893 10.8714L16.9951 11.0149V12.2649L7.00044 12.2649V11.0149C7.00044 10.0967 7.70755 9.34373 8.60691 9.27072L8.75044 9.26492L15.2451 9.26492L8.75044 9.26492ZM12.0004 2.26538C13.6573 2.26538 15.0004 3.60853 15.0004 5.26538C15.0004 6.92224 13.6573 8.26538 12.0004 8.26538C10.3436 8.26538 9.00044 6.92224 9.00044 5.26538C9.00044 3.60853 10.3436 2.26538 12.0004 2.26538Z" fill="#6C4EA2"/>
</svg>
