<svg width="24" height="25" viewBox="0 0 24 25" fill="none" xmlns="http://www.w3.org/2000/svg">
<path d="M13.0571 7.69651C14.0334 6.7202 15.6163 6.7202 16.5926 7.69651C17.5689 8.67282 17.5689 10.2557 16.5926 11.232C15.6163 12.2084 14.0334 12.2084 13.0571 11.232C12.0807 10.2557 12.0807 8.67282 13.0571 7.69651ZM15.5319 8.75717C15.1414 8.36664 14.5082 8.36664 14.1177 8.75717C13.7272 9.14769 13.7272 9.78086 14.1177 10.1714C14.5082 10.5619 15.1414 10.5619 15.5319 10.1714C15.9225 9.78086 15.9225 9.14769 15.5319 8.75717ZM19.6976 2.77764C20.5625 3.04607 21.2398 3.7231 21.5086 4.58791L21.715 5.25221C22.4591 7.64637 21.8149 10.2557 20.0421 12.0285L19.0442 13.0264C20.0716 14.3961 19.9623 16.3481 18.7165 17.594L17.474 18.8365C17.1811 19.1294 16.7062 19.1294 16.4133 18.8365L14.8237 17.2469L14.6469 17.4237C13.9635 18.1071 12.8555 18.1071 12.1721 17.4237L11.685 16.9366L10.8737 18.327C10.7565 18.5279 10.5528 18.663 10.3221 18.6928C10.0915 18.7227 9.86006 18.6438 9.69561 18.4793L5.8065 14.5902C5.64309 14.4268 5.56414 14.1972 5.5925 13.9679C5.62087 13.7385 5.75339 13.535 5.95169 13.4164L7.33616 12.5878L6.86548 12.1171C6.18206 11.4337 6.18206 10.3257 6.86548 9.64225L7.04529 9.46244L5.45432 7.87147C5.16142 7.57857 5.16142 7.1037 5.45432 6.81081L6.69685 5.56827C7.94316 4.32196 9.89622 4.21312 11.266 5.24176L12.2618 4.24588C14.034 2.47377 16.642 1.82935 19.0355 2.57218L19.6976 2.77764ZM20.0762 5.03308C19.954 4.63999 19.6461 4.33225 19.253 4.21024L18.5909 4.00477C16.7293 3.42702 14.7008 3.92823 13.3225 5.30654L7.92614 10.7029C7.82851 10.8005 7.82851 10.9588 7.92614 11.0565L13.2327 16.363C13.3303 16.4607 13.4886 16.4607 13.5863 16.363L18.9815 10.9678C20.3603 9.58898 20.8613 7.55951 20.2826 5.69739L20.0762 5.03308ZM6.68987 18.6599C6.98276 18.3671 6.98276 17.8922 6.68987 17.5993C6.39697 17.3064 5.9221 17.3064 5.62921 17.5993L3.15433 20.0742C2.86144 20.3671 2.86144 20.8419 3.15433 21.1348C3.44723 21.4277 3.9221 21.4277 4.21499 21.1348L6.68987 18.6599ZM4.74529 15.6547C5.03818 15.9476 5.03818 16.4225 4.74529 16.7154L3.68463 17.7761C3.39173 18.069 2.91686 18.069 2.62397 17.7761C2.33107 17.4832 2.33107 17.0083 2.62397 16.7154L3.68463 15.6547C3.97752 15.3618 4.45239 15.3618 4.74529 15.6547ZM8.63238 20.6066C8.92528 20.3137 8.92528 19.8388 8.63239 19.5459C8.33951 19.253 7.86463 19.253 7.57173 19.5459L6.51313 20.6045C6.22023 20.8974 6.22023 21.3722 6.51312 21.6651C6.80601 21.958 7.28088 21.958 7.57378 21.6652L8.63238 20.6066Z" fill="#6C4EA2"/>
</svg>
