<svg width="24" height="25" viewBox="0 0 24 25" fill="none" xmlns="http://www.w3.org/2000/svg">
<path d="M8.66438 16C8.90871 16.173 9.20094 16.2654 9.50032 16.2644V16.2604C9.7826 16.261 10.0588 16.1787 10.2948 16.0237C10.5307 15.8686 10.7159 15.6477 10.8273 15.3884L11.4403 13.5244C11.5819 13.1021 11.8198 12.7186 12.1351 12.4041C12.4505 12.0896 12.8347 11.8528 13.2573 11.7124L15.0353 11.1344C15.3217 11.0338 15.5691 10.8454 15.7422 10.596C15.9154 10.3467 16.0055 10.0491 15.9997 9.7456C15.994 9.44209 15.8926 9.14812 15.7102 8.90553C15.5277 8.66294 15.2733 8.48408 14.9833 8.39439L13.2283 7.82439C12.8038 7.68313 12.418 7.4448 12.1018 7.12834C11.7855 6.81188 11.5473 6.42601 11.4063 6.00139L10.8283 4.22439C10.7275 3.94137 10.5411 3.69677 10.2949 3.52458C10.0486 3.3524 9.75492 3.26118 9.45449 3.2636C9.15406 3.26602 8.86184 3.36196 8.61844 3.53808C8.37504 3.71421 8.19255 3.96178 8.09632 4.24639L7.51332 6.03839C7.37273 6.45066 7.14037 6.82562 6.83376 7.135C6.52715 7.44438 6.1543 7.68011 5.74332 7.82439L3.96632 8.39539C3.75494 8.46932 3.56365 8.59139 3.40757 8.75197C3.25149 8.91254 3.1349 9.10722 3.067 9.32061C2.9991 9.534 2.98176 9.76026 3.01636 9.9815C3.05095 10.2027 3.13652 10.4129 3.26632 10.5954C3.44321 10.8444 3.6941 11.0312 3.98332 11.1294L5.73732 11.6984C6.16295 11.8408 6.54951 12.0805 6.86632 12.3984C6.95138 12.4828 7.03088 12.5727 7.10432 12.6674C7.30349 12.9252 7.45735 13.215 7.55932 13.5244L8.13732 15.2994C8.23579 15.5821 8.42004 15.827 8.66438 16ZM16.331 21.0474C16.1405 20.9116 15.9971 20.7196 15.921 20.4984L15.593 19.4914C15.5292 19.2999 15.4221 19.1257 15.28 18.9824C15.1375 18.8395 14.9635 18.732 14.772 18.6684L13.781 18.3454C13.5506 18.2681 13.3507 18.1196 13.21 17.9214C13.0727 17.7291 12.9993 17.4986 13 17.2624C13.0003 17.0246 13.0748 16.7929 13.213 16.5994C13.3503 16.4049 13.5456 16.2589 13.771 16.1824L14.777 15.8564C14.964 15.79 15.1333 15.6817 15.272 15.5397C15.4107 15.3977 15.515 15.2259 15.577 15.0374L15.901 14.0454C15.9772 13.8212 16.1212 13.6261 16.3131 13.4873C16.505 13.3484 16.7352 13.2726 16.9721 13.2703C17.2089 13.268 17.4406 13.3393 17.6351 13.4744C17.8297 13.6095 17.9774 13.8017 18.058 14.0244L18.387 15.0384C18.4514 15.2285 18.559 15.4011 18.7012 15.5426C18.8435 15.6842 19.0166 15.7909 19.207 15.8544L20.199 16.1774C20.4277 16.2489 20.628 16.3906 20.7717 16.5824C20.9153 16.7741 20.9949 17.0063 20.9992 17.2458C21.0036 17.4854 20.9324 17.7202 20.7957 17.9171C20.6591 18.1139 20.464 18.2627 20.238 18.3424L19.224 18.6714C19.0339 18.7362 18.8612 18.8436 18.719 18.9854C18.5767 19.1282 18.4695 19.3021 18.406 19.4934L18.084 20.4824C18.0065 20.7127 17.8576 20.9124 17.659 21.0524C17.467 21.1904 17.2365 21.2646 17 21.2644C16.7597 21.2644 16.5256 21.1884 16.331 21.0474Z" fill="#6C4EA2"/>
</svg>
