<svg width="24" height="25" viewBox="0 0 24 25" fill="none" xmlns="http://www.w3.org/2000/svg">
<path d="M5.25 3.26538C3.45507 3.26538 2 4.72045 2 6.51538L2 18.0154C2 19.8103 3.45507 21.2654 5.25 21.2654L18.75 21.2654C20.5449 21.2654 22 19.8103 22 18.0154L22 6.51538C22 4.72046 20.5449 3.26538 18.75 3.26538L5.25 3.26538ZM9 9.51608C9 8.75548 9.81546 8.27332 10.4819 8.63986L15.4815 11.3896C16.1723 11.7695 16.1723 12.7621 15.4815 13.142L10.4819 15.8917C9.81546 16.2582 9 15.7761 9 15.0155L9 9.51608Z" fill="#6C4EA2"/>
</svg>
