<svg width="24" height="25" viewBox="0 0 24 25" fill="none" xmlns="http://www.w3.org/2000/svg">
<g clip-path="url(#clip0_1613_13594)">
<path fill-rule="evenodd" clip-rule="evenodd" d="M24 12.2654C24 18.8928 18.6274 24.2654 12 24.2654C5.37258 24.2654 0 18.8928 0 12.2654C0 5.63796 5.37258 0.265381 12 0.265381C18.6274 0.265381 24 5.63796 24 12.2654ZM12.43 9.12431C11.2628 9.60978 8.93014 10.6146 5.43189 12.1387C4.86383 12.3646 4.56626 12.5856 4.53917 12.8017C4.49339 13.1669 4.95071 13.3107 5.57347 13.5065C5.65818 13.5331 5.74595 13.5607 5.83594 13.59C6.44864 13.7892 7.27283 14.0222 7.70129 14.0314C8.08994 14.0398 8.52373 13.8796 9.00264 13.5507C12.2712 11.3444 13.9584 10.2292 14.0643 10.2051C14.139 10.1882 14.2426 10.1669 14.3128 10.2292C14.3829 10.2916 14.376 10.4097 14.3686 10.4414C14.3233 10.6345 12.5281 12.3035 11.5991 13.1672C11.3095 13.4364 11.1041 13.6274 11.0621 13.671C10.968 13.7687 10.8721 13.8612 10.78 13.95C10.2108 14.4987 9.78391 14.9102 10.8036 15.5822C11.2936 15.9051 11.6858 16.1721 12.077 16.4385C12.5042 16.7295 12.9303 17.0196 13.4816 17.381C13.6221 17.4731 13.7562 17.5688 13.8869 17.6619C14.3841 18.0164 14.8307 18.3348 15.3826 18.284C15.7032 18.2545 16.0345 17.953 16.2027 17.0537C16.6002 14.9285 17.3816 10.3238 17.5622 8.42635C17.578 8.26011 17.5581 8.04735 17.5422 7.95396C17.5262 7.86056 17.4928 7.72749 17.3714 7.62898C17.2276 7.51232 17.0056 7.48772 16.9064 7.48946C16.455 7.49742 15.7626 7.7382 12.43 9.12431Z" fill="#6C4EA2"/>
</g>
<defs>
<clipPath id="clip0_1613_13594">
<rect width="24" height="24" fill="white" transform="translate(0 0.265381)"/>
</clipPath>
</defs>
</svg>
