<svg xmlns="http://www.w3.org/2000/svg" version="1.1" viewBox="0.00 0.00 940.00 940.00">
<path fill="#7c7f7f" d="   M 211.26 534.29   Q 208.95 545.02 203.39 558.14   C 199.70 566.84 195.45 575.71 189.15 582.36   Q 185.77 585.93 180.51 587.90   Q 165.18 593.64 149.26 598.45   Q 145.64 599.54 141.97 600.06   A 1.17 1.16 -82.0 0 1 140.75 598.43   Q 141.36 597.05 142.48 596.07   Q 147.12 592.01 153.31 587.76   Q 162.06 581.75 170.90 575.95   Q 180.62 569.57 185.36 564.15   Q 192.70 555.76 195.76 545.56   A 0.44 0.43 -80.0 0 0 195.37 545.00   C 194.20 544.93 192.74 545.10 191.68 545.64   Q 183.11 550.01 174.62 543.75   C 169.48 539.97 168.82 535.31 170.78 529.33   Q 176.36 512.33 187.02 497.22   C 189.22 494.10 192.94 491.18 197.08 491.54   C 207.72 492.45 213.83 503.21 213.82 513.09   Q 213.82 513.63 214.35 513.58   Q 219.02 513.14 223.73 512.87   Q 234.25 512.25 238.57 502.67   Q 239.24 501.18 240.64 501.46   C 241.72 501.68 242.60 503.17 243.48 503.87   C 245.61 505.55 249.99 504.07 251.63 502.67   C 254.09 500.58 255.73 496.61 257.34 493.54   Q 258.06 492.17 259.32 493.07   C 262.49 495.36 266.12 497.25 269.33 493.73   Q 272.69 490.03 275.68 485.39   Q 276.01 484.88 276.62 484.97   Q 278.30 485.23 279.92 486.29   Q 280.40 486.61 280.98 486.57   Q 286.73 486.15 290.30 481.12   Q 296.17 472.86 297.58 463.90   Q 298.95 455.27 298.70 447.16   Q 298.01 424.95 298.72 406.39   C 298.83 403.58 299.41 400.63 300.47 397.99   Q 307.57 380.32 314.44 363.14   Q 314.65 362.61 315.20 362.44   L 315.83 362.24   Q 316.30 362.10 316.48 361.64   Q 318.18 357.39 320.16 353.00   Q 325.56 341.05 335.99 331.35   Q 347.49 320.65 356.62 313.34   Q 386.90 289.11 417.64 264.09   Q 431.35 252.92 452.05 233.80   Q 471.78 215.58 509.10 178.80   Q 509.66 178.25 509.48 179.02   Q 508.79 181.82 507.65 184.56   Q 501.99 198.27 493.08 210.66   C 483.57 223.90 471.27 237.52 458.65 249.00   C 431.20 273.98 403.16 297.69 374.07 319.61   Q 349.02 338.49 322.77 359.51   Q 319.95 361.77 317.07 363.05   Q 316.45 363.32 316.47 364.00   C 316.97 377.10 314.95 389.57 314.87 401.75   C 314.80 412.80 314.99 425.07 313.79 435.38   Q 311.92 451.52 307.82 466.35   C 304.88 476.95 300.20 485.83 292.63 494.10   Q 285.03 502.40 279.70 505.95   C 277.32 507.54 273.80 507.70 271.34 509.52   C 266.68 512.96 262.00 516.76 256.22 518.18   Q 252.99 518.97 249.72 519.62   C 246.10 520.34 243.75 522.98 240.27 524.03   Q 230.14 527.10 221.51 532.10   Q 218.73 533.71 215.94 535.24   Q 213.66 536.50 212.49 534.14   Q 211.65 532.44 211.26 534.29   Z"/>
<path fill="#7c7f7f" d="   M 220.06 352.07   C 223.85 342.55 228.79 331.90 233.81 323.91   Q 235.35 321.46 238.31 322.49   C 244.72 324.72 250.10 330.31 252.64 336.49   Q 254.93 342.03 252.77 348.33   Q 248.91 359.59 242.02 368.41   C 239.85 371.19 237.47 369.75 235.40 368.00   Q 228.00 361.76 221.07 356.01   A 3.46 3.45 -59.4 0 1 220.06 352.07   Z"/>
<path fill="#7c7f7f" d="   M 238.68 383.34   A 0.16 0.16 0.0 0 0 238.96 383.33   Q 244.47 373.81 250.56 364.33   Q 251.21 363.33 252.61 362.04   Q 253.03 361.66 253.59 361.71   C 260.23 362.34 267.06 369.73 269.82 375.07   Q 272.85 380.90 270.04 388.05   Q 265.79 398.91 257.90 406.61   Q 254.44 409.99 250.52 406.15   Q 245.76 401.49 240.97 396.88   Q 239.58 395.54 237.91 394.47   Q 237.47 394.19 237.25 394.66   C 235.54 398.30 225.83 418.38 219.90 414.36   Q 211.28 408.49 203.65 401.36   C 202.60 400.38 202.66 399.30 203.19 398.08   Q 209.11 384.44 218.19 370.12   Q 220.20 366.95 223.38 368.80   Q 233.14 374.52 238.68 383.34   Z"/>
<path fill="#7c7f7f" d="   M 823.84 414.49   Q 827.51 406.39 831.73 398.73   Q 833.58 395.37 835.76 392.84   C 840.35 387.52 850.99 399.87 853.65 403.12   C 856.82 406.98 858.49 410.32 856.79 415.29   Q 852.52 427.84 843.85 437.92   A 2.67 2.66 36.5 0 1 840.40 438.43   Q 831.20 432.57 823.02 426.82   C 819.15 424.10 822.38 417.71 823.84 414.49   Z"/>
<path fill="#7c7f7f" d="   M 500.47 463.34   Q 505.10 455.54 510.13 447.33   Q 511.56 444.99 513.24 443.28   C 515.26 441.23 519.95 444.34 521.68 445.73   C 526.75 449.82 532.90 456.78 532.32 463.62   Q 531.98 467.54 530.14 471.23   C 527.95 475.61 520.48 487.99 515.94 488.49   C 513.73 488.73 510.54 485.58 509.05 484.10   Q 503.99 479.04 499.08 475.14   A 0.60 0.59 -58.2 0 0 498.17 475.36   C 496.28 479.51 486.58 499.26 480.15 494.24   Q 472.20 488.03 465.46 481.97   A 2.82 2.81 -57.4 0 1 464.76 478.76   Q 470.63 465.16 478.81 451.93   Q 479.52 450.79 480.51 449.81   C 485.18 445.13 497.23 460.34 499.60 463.40   Q 500.07 464.01 500.47 463.34   Z"/>
<path fill="#7c7f7f" d="   M 727.07 499.86   C 728.69 483.33 735.72 467.18 743.16 452.49   Q 743.78 451.27 744.84 450.44   A 1.57 1.57 0.0 0 1 747.36 451.85   C 744.82 475.25 744.73 499.76 744.06 523.39   Q 743.58 540.25 740.44 554.05   Q 737.79 565.70 731.41 578.99   C 730.19 581.53 725.58 589.73 722.55 589.72   A 1.49 1.48 -84.4 0 1 721.10 587.94   Q 722.52 580.77 723.86 573.84   C 727.62 554.46 726.54 534.16 726.38 514.31   Q 726.32 507.42 727.07 499.86   Z"/>
<path fill="#7c7f7f" d="   M 883.45 545.05   C 879.98 544.83 877.28 547.57 873.67 547.54   Q 865.24 547.45 860.11 541.16   C 856.89 537.21 857.77 533.21 859.41 528.38   Q 864.83 512.43 875.12 497.85   C 877.62 494.31 881.43 491.46 885.96 492.06   C 894.57 493.19 900.64 501.24 901.71 509.31   Q 902.86 518.02 900.65 529.35   Q 896.75 549.33 886.81 568.76   Q 883.83 574.59 879.08 580.74   C 875.34 585.57 870.33 587.58 864.68 589.56   Q 850.79 594.40 836.53 598.75   Q 834.08 599.49 832.01 599.77   Q 826.53 600.49 830.30 596.45   Q 833.46 593.06 838.85 589.43   Q 850.38 581.65 862.06 573.86   C 872.69 566.77 880.34 557.72 883.97 545.80   Q 884.18 545.10 883.45 545.05   Z"/>
<path fill="#7c7f7f" d="   M 112.84 553.98   C 122.39 537.78 128.81 521.61 136.19 504.04   C 136.93 502.29 138.79 499.06 141.06 499.46   A 2.29 2.28 3.2 0 1 142.95 501.57   Q 143.18 505.15 142.52 508.04   Q 135.23 540.05 121.90 569.12   C 117.32 579.10 111.38 587.34 100.67 591.27   Q 82.39 597.97 64.49 600.04   Q 63.16 600.19 62.30 599.13   C 60.00 596.31 67.05 590.93 68.97 589.70   C 81.08 581.89 94.28 573.79 104.72 564.30   Q 109.10 560.33 112.84 553.98   Z"/>
<path fill="#7c7f7f" d="   M 673.84 554.02   C 683.18 538.34 689.93 521.46 696.89 504.69   Q 697.76 502.59 699.23 500.78   C 700.73 498.94 703.42 498.75 703.92 501.45   Q 704.19 502.93 704.00 504.27   Q 702.98 511.50 700.53 520.33   Q 693.64 545.25 683.41 568.10   C 678.75 578.49 672.72 587.26 661.49 591.34   Q 642.93 598.09 625.55 600.02   C 623.77 600.21 622.24 598.73 622.99 596.93   C 624.19 594.02 627.45 591.29 629.99 589.67   Q 645.06 580.06 657.96 570.81   Q 668.20 563.47 673.84 554.02   Z"/>
<path fill="#7c7f7f" d="   M 806.85 553.94   C 816.60 537.53 823.14 520.75 830.28 503.79   C 830.98 502.15 833.00 498.79 835.39 499.54   C 837.11 500.07 837.16 502.62 836.99 504.06   Q 836.30 509.77 834.78 515.59   Q 827.24 544.47 815.75 569.47   C 811.12 579.53 805.09 587.53 794.11 591.49   Q 776.08 597.99 758.74 600.02   Q 757.39 600.18 756.45 599.34   C 753.54 596.73 761.17 590.83 762.85 589.77   Q 777.81 580.34 791.62 570.31   Q 801.30 563.29 806.85 553.94   Z"/>
<path fill="#7c7f7f" d="   M 417.51 550.48   C 430.69 555.83 445.28 557.58 460.04 558.59   Q 485.06 560.31 517.20 557.86   C 546.07 555.65 574.39 549.73 600.03 536.81   C 607.93 532.83 614.47 527.26 618.91 519.94   Q 620.72 516.97 622.76 514.08   Q 623.27 513.36 624.02 513.16   A 1.06 1.06 0.0 0 1 625.35 514.15   Q 625.50 518.56 624.14 523.06   Q 620.28 535.78 613.05 548.65   C 607.62 558.34 600.78 564.92 591.09 570.69   Q 579.68 577.48 570.10 581.32   C 559.69 585.49 548.35 588.95 537.15 591.49   Q 485.49 603.21 432.00 598.73   C 415.75 597.37 392.56 590.40 391.17 570.42   Q 390.74 564.27 391.96 556.27   Q 394.35 540.65 397.50 527.53   C 397.96 525.63 398.72 522.88 401.17 522.92   A 1.36 1.34 72.1 0 1 402.24 523.48   C 403.76 525.59 403.79 530.52 403.96 533.18   Q 404.28 538.05 405.33 540.23   C 407.61 544.93 412.87 548.59 417.51 550.48   Z"/>
</svg>